Coordinates
version=1
nRows=7
nColumns=40
inDegrees=yes

Units are S.I. units (second, meters, Newtons, ...)
If the header above contains a line with 'inDegrees', this indicates whether rotational values are in degrees (yes) or radians (no).

endheader
time	pelvis_tilt	pelvis_list	pelvis_rotation	pelvis_tx	pelvis_ty	pelvis_tz	hip_flexion_r	hip_adduction_r	hip_rotation_r	knee_angle_r	knee_angle_r_beta	ankle_angle_r	subtalar_angle_r	mtp_angle_r	hip_flexion_l	hip_adduction_l	hip_rotation_l	knee_angle_l	knee_angle_l_beta	ankle_angle_l	subtalar_angle_l	mtp_angle_l	lumbar_extension	lumbar_bending	lumbar_rotation	arm_flex_r	arm_add_r	arm_rot_r	elbow_flex_r	pro_sup_r	wrist_flex_r	wrist_dev_r	arm_flex_l	arm_add_l	arm_rot_l	elbow_flex_l	pro_sup_l	wrist_flex_l	wrist_dev_l
      3.07500000	    -21.14785520	      4.21791595	      1.59438191	     -0.38655826	      0.76088380	     -0.78918950	     66.34441724	     -3.20744772	     -9.56537481	     78.88420424	      1.37678909	     22.19664312	      0.00000000	      0.00000000	     35.37316013	    -14.78758306	      4.88816970	     89.87467811	      1.56860905	    -13.36080007	      0.00000000	      0.00000000	     -8.66504734	    -22.58599163	    -17.03193202	     70.54824085	    -15.55872865	     12.35678512	     62.66866985	     87.34359345	      0.00000000	      0.00000000	     89.95043189	      8.95422069	     38.04699933	     38.54413295	     69.01452661	      0.00000000	      0.00000000
      3.08000000	    -21.13604822	      4.12640033	      1.66380813	     -0.38671258	      0.76037765	     -0.78931106	     66.37501901	     -3.22358821	     -9.68043129	     78.97187698	      1.37831927	     22.26062277	      0.00000000	      0.00000000	     35.50131188	    -14.83444194	      5.04161467	     89.96539158	      1.57019230	    -13.45361745	      0.00000000	      0.00000000	     -8.74509787	    -22.41996651	    -17.05455489	     70.59223818	    -15.63043527	     12.44144446	     62.71468912	     87.35790272	      0.00000000	      0.00000000	     89.95047727	      8.92532022	     38.09951607	     38.62992376	     68.83591971	      0.00000000	      0.00000000
      3.08500000	    -21.14516340	      4.08532580	      1.67445620	     -0.38680089	      0.75975184	     -0.78923771	     66.45156731	     -3.19522472	     -9.70990953	     79.09733566	      1.38050894	     22.28257238	      0.00000000	      0.00000000	     35.57615576	    -14.89731477	      5.09934193	     90.02605500	      1.57125107	    -13.40782389	      0.00000000	      0.00000000	     -8.81096110	    -22.44476698	    -17.15104031	     70.57700821	    -15.55885751	     12.31697284	     62.68234293	     87.36613817	      0.00000000	      0.00000000	     89.95054966	      8.96217653	     38.06530690	     38.63169631	     68.53032653	      0.00000000	      0.00000000
      3.09000000	    -21.19590948	      4.09134103	      1.65513205	     -0.38692790	      0.75908839	     -0.78924262	     66.59139186	     -3.18600105	     -9.69446061	     79.21762626	      1.38260840	     22.38579124	      0.00000000	      0.00000000	     35.68295959	    -14.89955981	      5.10787850	     90.06443770	      1.57192098	    -13.43168022	      0.00000000	      0.00000000	     -8.77930114	    -22.43102816	    -17.10060326	     70.58913718	    -15.60602746	     12.37678021	     62.68015082	     87.34487484	      0.00000000	      0.00000000	     89.95050558	      8.96674162	     38.06738416	     38.61652955	     68.30011068	      0.00000000	      0.00000000
      3.09500000	    -21.23878034	      4.14080107	      1.63588573	     -0.38698079	      0.75841789	     -0.78920478	     66.72488026	     -3.19056379	     -9.62110672	     79.36148386	      1.38511919	     22.37665470	      0.00000000	      0.00000000	     35.76845419	    -14.89826043	      5.04693035	     90.12294536	      1.57294213	    -13.45774188	      0.00000000	      0.00000000	     -8.77360907	    -22.50819006	    -17.11494070	     70.58334265	    -15.63515419	     12.40176581	     62.75362345	     87.22046415	      0.00000000	      0.00000000	     89.95075340	      8.96762283	     38.17583689	     38.60950060	     68.14292905	      0.00000000	      0.00000000
      3.10000000	    -21.19637413	      4.11492916	      1.63483225	     -0.38708083	      0.75792499	     -0.78918159	     66.74053518	     -3.16180849	     -9.62930121	     79.46772295	      1.38697341	     22.46521276	      0.00000000	      0.00000000	     35.78606039	    -14.93517199	      5.08762475	     90.17137654	      1.57378741	    -13.41642549	      0.00000000	      0.00000000	     -8.87468772	    -22.43394645	    -17.12321509	     70.64274358	    -15.61571809	     12.41397959	     62.73109494	     87.29661782	      0.00000000	      0.00000000	     89.95064645	      8.94897134	     37.99126780	     38.69645514	     68.15062692	      0.00000000	      0.00000000
      3.10500000	    -21.19860849	      4.10084076	      1.61865425	     -0.38712749	      0.75738472	     -0.78907442	     66.80831325	     -3.12733020	     -9.63113070	     79.58107498	      1.38895178	     22.51479828	      0.00000000	      0.00000000	     35.84361674	    -14.97450884	      5.11170128	     90.21631473	      1.57457173	    -13.36875281	      0.00000000	      0.00000000	     -8.91288586	    -22.47202942	    -17.16928944	     70.65999206	    -15.57221386	     12.36947102	     62.64685303	     87.37671261	      0.00000000	      0.00000000	     89.95069869	      8.96291581	     37.91136513	     38.69486951	     68.14821631	      0.00000000	      0.00000000
